<svg xmlns="http://www.w3.org/2000/svg" width="1024" height="1024" viewBox="0 0 1024 1024" version="1.1">
	<path d="M 342.763 128.565 C 336.892 131.751, 335.461 139.811, 339.059 149.429 C 340.192 152.456, 344.160 160.011, 347.877 166.217 C 366.689 197.625, 373.762 212.181, 384.987 242.589 C 407.253 302.903, 406.853 344.540, 383.782 367.899 C 364.521 387.400, 331.584 390.193, 294 375.513 C 288.775 373.472, 267.610 363.335, 246.966 352.987 C 180.116 319.478, 152.192 309.303, 135.618 312.412 C 127.405 313.953, 121.534 323.027, 123.971 330.412 C 126.402 337.779, 134.142 343.191, 157 353.511 C 209.757 377.329, 257.164 419.944, 278.336 462.582 C 307.226 520.764, 284.410 579.129, 222.047 606.575 C 199.431 616.529, 174.442 622.193, 138.500 625.514 C 129.150 626.378, 119.167 627.745, 116.317 628.551 C 109.761 630.405, 105.353 634.089, 103.905 638.923 C 102.943 642.135, 103.072 643.373, 104.768 647.208 C 105.865 649.688, 108.278 652.870, 110.131 654.280 C 123.145 664.179, 161.482 669.230, 199 665.989 C 216.348 664.491, 229.975 662.345, 257.500 656.779 C 281.055 652.016, 283.425 651.718, 298.500 651.634 C 317.005 651.530, 326.216 653.377, 337.951 659.544 C 365.822 674.189, 381.041 702.958, 380.982 740.881 C 380.914 783.617, 364.271 824.268, 332.146 860.165 C 327.551 865.299, 322.939 871.170, 321.896 873.210 C 316.168 884.419, 323.379 895, 336.746 895 C 352.175 895, 388.713 865.191, 422.018 825.431 C 428.986 817.113, 434.337 810.033, 461.270 773.500 C 466.947 765.800, 475.680 754.765, 480.678 748.978 C 515.063 709.161, 553.958 692.568, 596.672 699.496 C 647.622 707.759, 703.963 752.917, 752.009 824 C 757.894 832.707, 764.788 839.986, 768.718 841.643 C 776.683 845.001, 785.598 842.117, 789.311 834.980 C 791.711 830.367, 791.095 818.043, 788.013 809 C 780.928 788.211, 759.993 752.490, 737.049 722.040 C 721.175 700.973, 712.242 686.684, 706.925 673.854 C 697.528 651.179, 697.685 630.307, 707.401 610.500 C 712.964 599.159, 718.645 592.056, 728.492 584.136 C 738.232 576.300, 748.164 571.306, 775.582 560.456 C 807.485 547.832, 829.795 536.226, 852.763 520.305 C 880.064 501.380, 905.032 476.532, 913.723 459.638 C 920.169 447.107, 914.513 435.014, 902.200 435.004 C 896.444 434.999, 892.826 437.034, 884.500 444.963 C 860.896 467.440, 819.735 485.203, 782.319 489.061 C 729.822 494.474, 698.810 472.049, 701.334 430.502 C 702.491 411.470, 709.272 391.521, 726.602 356.172 C 756.564 295.055, 771.936 248.935, 772.154 219.500 C 772.230 209.357, 771.041 203.821, 767.752 199.003 C 763.458 192.711, 754.449 190.165, 748.099 193.449 C 742.369 196.412, 739.226 201.454, 735.443 213.753 C 727.341 240.088, 721.002 256.072, 709.816 278.370 C 689.832 318.205, 669.289 345.286, 647 361.177 C 628.650 374.259, 604.952 381.084, 582.894 379.638 C 540.020 376.829, 509.338 356.188, 485.529 314.138 C 482.485 308.761, 475.697 295.169, 470.445 283.931 C 446.310 232.295, 423.002 193.877, 396.472 162 C 388.716 152.681, 373.069 137.498, 366.761 133.170 C 358.046 127.192, 348.626 125.384, 342.763 128.565" stroke="none" fill="#21aaff" fill-rule="evenodd"/>
</svg>